<svg xmlns="http://www.w3.org/2000/svg" xmlns:xlink="http://www.w3.org/1999/xlink" width="236.701" height="237.748" viewBox="0 0 236.701 237.748">
  <defs>
    <linearGradient id="linear-gradient" x1="0.5" y1="1" x2="0.5" gradientUnits="objectBoundingBox">
      <stop offset="0" stop-color="#d470ff"/>
      <stop offset="1" stop-color="#cf95ff"/>
    </linearGradient>
    <linearGradient id="linear-gradient-2" x1="0.5" y1="1" x2="0.5" gradientUnits="objectBoundingBox">
      <stop offset="0" stop-color="#7c45b2"/>
      <stop offset="1" stop-color="#9677cc"/>
    </linearGradient>
    <linearGradient id="linear-gradient-4" x1="0.5" y1="1" x2="0.5" gradientUnits="objectBoundingBox">
      <stop offset="0" stop-color="#9570ff"/>
      <stop offset="1" stop-color="#cf95ff"/>
    </linearGradient>
    <linearGradient id="linear-gradient-5" x1="0.5" y1="1" x2="0.5" gradientUnits="objectBoundingBox">
      <stop offset="0" stop-color="#c21a8f"/>
      <stop offset="1" stop-color="#fe117e"/>
    </linearGradient>
    <linearGradient id="linear-gradient-6" x1="0.5" y1="1" x2="0.5" gradientUnits="objectBoundingBox">
      <stop offset="0" stop-color="#de1a8f"/>
      <stop offset="1" stop-color="#fe117e"/>
    </linearGradient>
    <linearGradient id="linear-gradient-7" y1="0.5" x2="1" y2="0.5" gradientUnits="objectBoundingBox">
      <stop offset="0" stop-color="#b31a8f"/>
      <stop offset="1" stop-color="#92117e"/>
    </linearGradient>
    <linearGradient id="linear-gradient-8" x1="0.5" y1="1" x2="0.5" y2="0" xlink:href="#linear-gradient-7"/>
    <linearGradient id="linear-gradient-9" y1="0.5" x2="1" y2="0.5" gradientUnits="objectBoundingBox">
      <stop offset="0" stop-color="#8b8be0"/>
      <stop offset="1" stop-color="#a177b7"/>
    </linearGradient>
    <linearGradient id="linear-gradient-11" x1="0.5" y1="1" x2="0.5" gradientUnits="objectBoundingBox">
      <stop offset="0" stop-color="#1c257b"/>
      <stop offset="1" stop-color="#482c83"/>
    </linearGradient>
    <linearGradient id="linear-gradient-12" x1="0.5" y1="1" x2="0.5" y2="0" xlink:href="#linear-gradient-9"/>
    <linearGradient id="linear-gradient-13" x1="0.5" y1="1" x2="0.5" gradientUnits="objectBoundingBox">
      <stop offset="0.016" stop-color="#ffc2a9"/>
      <stop offset="1" stop-color="#ff9595"/>
    </linearGradient>
    <linearGradient id="linear-gradient-14" x1="0.5" y1="1" x2="0.5" gradientUnits="objectBoundingBox">
      <stop offset="0" stop-color="#d191ff"/>
      <stop offset="1" stop-color="#cf95ff"/>
    </linearGradient>
    <linearGradient id="linear-gradient-16" x1="0.5" y1="1" x2="0.5" gradientUnits="objectBoundingBox">
      <stop offset="0" stop-color="#ff817f"/>
      <stop offset="1" stop-color="#cf6074"/>
    </linearGradient>
    <linearGradient id="linear-gradient-17" x1="0.284" y1="1.054" x2="0.877" y2="0.002" gradientUnits="objectBoundingBox">
      <stop offset="0" stop-color="#ff8883"/>
      <stop offset="1" stop-color="#e8868d"/>
    </linearGradient>
    <linearGradient id="linear-gradient-18" x1="0.359" y1="1.186" x2="0.641" y2="-0.186" xlink:href="#linear-gradient-17"/>
    <linearGradient id="linear-gradient-21" x1="0.029" y1="1.311" x2="0.029" y2="0.375" gradientUnits="objectBoundingBox">
      <stop offset="0" stop-color="#b31a8f"/>
      <stop offset="1" stop-color="#fe117e"/>
    </linearGradient>
    <linearGradient id="linear-gradient-25" x1="0.5" y1="1" x2="0.5" gradientUnits="objectBoundingBox">
      <stop offset="0.016" stop-color="#ffa58b"/>
      <stop offset="1" stop-color="#ff898e"/>
    </linearGradient>
    <linearGradient id="linear-gradient-26" x1="0.5" y1="1" x2="0.5" y2="0" xlink:href="#linear-gradient-21"/>
    <linearGradient id="linear-gradient-27" x1="0.5" y1="1" x2="0.5" gradientUnits="objectBoundingBox">
      <stop offset="0.016" stop-color="#ffac8b"/>
      <stop offset="1" stop-color="#ff9595"/>
    </linearGradient>
    <linearGradient id="linear-gradient-29" x1="0.5" y1="1" x2="0.5" gradientUnits="objectBoundingBox">
      <stop offset="0" stop-color="#d61a8f"/>
      <stop offset="1" stop-color="#fe3ca6"/>
    </linearGradient>
    <linearGradient id="linear-gradient-32" y1="0.5" x2="1" y2="0.5" gradientUnits="objectBoundingBox">
      <stop offset="0" stop-color="#5142d8"/>
      <stop offset="1" stop-color="#3989e8"/>
    </linearGradient>
    <linearGradient id="linear-gradient-33" x1="0.5" y1="1" x2="0.5" gradientUnits="objectBoundingBox">
      <stop offset="0" stop-color="#3d2cb0"/>
      <stop offset="1" stop-color="#0355c7"/>
    </linearGradient>
    <linearGradient id="linear-gradient-34" x1="0.5" y1="1" x2="0.5" gradientUnits="objectBoundingBox">
      <stop offset="0" stop-color="#744fd8"/>
      <stop offset="1" stop-color="#3996f7"/>
    </linearGradient>
    <linearGradient id="linear-gradient-35" x1="0.5" y1="1" x2="0.5" gradientUnits="objectBoundingBox">
      <stop offset="0" stop-color="#d0c7f8"/>
      <stop offset="1" stop-color="#fff"/>
    </linearGradient>
    <linearGradient id="linear-gradient-36" x1="0.5" y1="1" x2="0.5" y2="0" xlink:href="#linear-gradient-32"/>
    <linearGradient id="linear-gradient-37" x1="0.425" y1="1.137" x2="0.573" y2="-0.41" xlink:href="#linear-gradient-9"/>
    <linearGradient id="linear-gradient-38" x1="0" y1="0.5" x2="1" y2="0.5" xlink:href="#linear-gradient-13"/>
    <linearGradient id="linear-gradient-41" y1="0.5" x2="1" y2="0.5" gradientUnits="objectBoundingBox">
      <stop offset="0" stop-color="#bd33a0"/>
      <stop offset="1" stop-color="#0665a5"/>
    </linearGradient>
    <linearGradient id="linear-gradient-42" x1="0.328" y1="0.082" x2="0.686" y2="1.082" gradientUnits="objectBoundingBox">
      <stop offset="0" stop-color="#0665a5"/>
      <stop offset="1" stop-color="#bd33a0"/>
    </linearGradient>
    <radialGradient id="radial-gradient" cx="0.516" cy="0.703" r="0.489" gradientTransform="translate(0)" gradientUnits="objectBoundingBox">
      <stop offset="0" stop-color="#cf95ff"/>
      <stop offset="1" stop-color="#8161ff"/>
    </radialGradient>
    <linearGradient id="linear-gradient-44" x1="0.5" y1="1" x2="0.5" gradientUnits="objectBoundingBox">
      <stop offset="0" stop-color="#8642a0"/>
      <stop offset="1" stop-color="#4e37b7"/>
    </linearGradient>
    <radialGradient id="radial-gradient-2" cx="0.516" cy="0.703" r="0.357" gradientTransform="translate(-0.34) scale(1.679 1)" xlink:href="#radial-gradient"/>
    <linearGradient id="linear-gradient-45" x1="-0.164" y1="2.14" x2="-0.164" y2="0.439" xlink:href="#linear-gradient-44"/>
    <linearGradient id="linear-gradient-46" x1="-0.629" y1="2.321" x2="-0.629" y2="1.234" gradientUnits="objectBoundingBox">
      <stop offset="0" stop-color="#ff8883"/>
      <stop offset="1" stop-color="#ffb1a4"/>
    </linearGradient>
    <linearGradient id="linear-gradient-47" x1="-0.642" y1="3.187" x2="-0.642" y2="2.172" xlink:href="#linear-gradient-17"/>
    <linearGradient id="linear-gradient-48" x1="0.5" y1="1" x2="0.5" gradientUnits="objectBoundingBox">
      <stop offset="0" stop-color="#cf6074"/>
      <stop offset="1" stop-color="#e04a7f"/>
    </linearGradient>
    <linearGradient id="linear-gradient-51" x1="0.085" y1="0.923" x2="0.852" y2="0.098" xlink:href="#linear-gradient-17"/>
    <linearGradient id="linear-gradient-52" x1="0.225" y1="0.998" x2="0.701" y2="0.136" xlink:href="#linear-gradient-16"/>
    <linearGradient id="linear-gradient-53" x1="0.467" y1="0.86" x2="0.516" y2="0.254" xlink:href="#linear-gradient-16"/>
    <linearGradient id="linear-gradient-55" x1="0.5" y1="1" x2="0.5" y2="0" xlink:href="#linear-gradient-9"/>
  </defs>
  <g id="Vector_Smart_Object8" data-name="Vector Smart Object8" transform="translate(-237.249 -35.413)">
    <g id="Group_209" data-name="Group 209">
      <ellipse id="Ellipse_20" data-name="Ellipse 20" cx="53.705" cy="3.161" rx="53.705" ry="3.161" transform="translate(343.714 249.092)" fill="#e9e9f4"/>
      <ellipse id="Ellipse_21" data-name="Ellipse 21" cx="81.731" cy="82.119" rx="81.731" ry="82.119" transform="translate(242.231 157.027) rotate(-45)" fill="#f8f0fb"/>
      <g id="Group_187" data-name="Group 187">
        <path id="Path_6429" data-name="Path 6429" d="M312.5,203.654a25.8,25.8,0,1,1,25.675-25.8A25.765,25.765,0,0,1,312.5,203.654Zm0-51.218a25.422,25.422,0,1,0,25.3,25.421A25.39,25.39,0,0,0,312.5,152.436Z" fill="#d4cdfa"/>
      </g>
      <path id="Path_6430" data-name="Path 6430" d="M469.249,191.276a2.619,2.619,0,1,1-2.619-2.631A2.625,2.625,0,0,1,469.249,191.276Z" fill="#ff4a9a"/>
      <path id="Path_6431" data-name="Path 6431" d="M345.594,174a1.952,1.952,0,1,1-1.952-1.962A1.957,1.957,0,0,1,345.594,174Z" fill="#ff1d9c"/>
      <ellipse id="Ellipse_22" data-name="Ellipse 22" cx="1.852" cy="1.861" rx="1.852" ry="1.861" transform="translate(348.888 68.921)" fill="#a74aff"/>
      <path id="Path_6432" data-name="Path 6432" d="M448.4,127.209a1.309,1.309,0,1,1-1.31-1.316A1.313,1.313,0,0,1,448.4,127.209Z" fill="#839fff"/>
      <path id="Path_6433" data-name="Path 6433" d="M283.63,225.242a1.31,1.31,0,1,1-1.31-1.316A1.313,1.313,0,0,1,283.63,225.242Z" fill="#a74aff"/>
      <g id="Group_188" data-name="Group 188">
        <path id="Path_6434" data-name="Path 6434" d="M362.094,69.095a5.15,5.15,0,1,1,5.125-5.149A5.143,5.143,0,0,1,362.094,69.095Zm0-9.924a4.774,4.774,0,1,0,4.751,4.775A4.768,4.768,0,0,0,362.094,59.17Z" fill="#d4cdfa"/>
      </g>
      <g id="Group_191" data-name="Group 191">
        <ellipse id="Ellipse_23" data-name="Ellipse 23" cx="3.514" cy="3.531" rx="3.514" ry="3.531" transform="translate(288.925 110.375)" fill="url(#linear-gradient)"/>
        <ellipse id="Ellipse_24" data-name="Ellipse 24" cx="2.048" cy="2.058" rx="2.048" ry="2.058" transform="translate(266.175 143.671)" fill="url(#linear-gradient-2)"/>
        <g id="Group_190" data-name="Group 190">
          <path id="Path_6435" data-name="Path 6435" d="M276.141,120.484a11.43,11.43,0,0,0-4.429,4.845c-1.2,2.4-1.095,6.344-1.095,6.344s0,13.387,7.11,23.452h0l1.578-2.578,16.512-.61,1.9-2.351Z" fill="url(#linear-gradient-2)"/>
          <path id="Path_6436" data-name="Path 6436" d="M277.728,155.124s-5.106-15.51-4.731-31.02a13.69,13.69,0,0,1,9.287-6.417c5.73-.874,11.576,1.263,14.08,5.785,0,0,1.907,2.9,2.222,11.342.359,9.648-.869,14.771-.869,14.771s-9.644,4.072-16.888.475Z" fill="url(#linear-gradient-4)"/>
          <g id="Group_189" data-name="Group 189">
            <path id="Path_6437" data-name="Path 6437" d="M279.114,132.764q.009.976.031,1.935t.064,1.924c.082,0,.164,0,.248-.005l.247-.014c.1-.007.211-.014.321-.024s.219-.022.33-.035c0-.145-.007-.286-.015-.426s-.017-.282-.025-.431c-.03-.5-.064-.995-.1-1.488s-.084-.992-.137-1.493l1.2-.071q-.018,1.19,0,2.361t.093,2.356c.023.387.05.773.083,1.155s.068.77.108,1.158l-1.116.067c-.007-.391-.015-.782-.025-1.168L280.4,137.4c-.187,0-.372,0-.557.006s-.368.009-.551.02l-.039,0,.06,1.014q.02.343.04.678t.05.673l-1.121.068q-.018-.711-.051-1.4t-.075-1.39q-.126-2.115-.339-4.23Z" fill="#fff"/>
            <path id="Path_6438" data-name="Path 6438" d="M284.1,136.913c-.1,0-.2,0-.309,0s-.21.008-.314.014c-.059,0-.12.009-.184.016s-.126.012-.188.016l.084,1.757c.267-.022.526-.051.778-.086s.519-.082.8-.141l.061,1.027c-.184,0-.361.01-.533.018s-.341.015-.511.026c-.255.015-.506.035-.753.056s-.5.051-.767.083q-.01-.917-.036-1.816t-.08-1.814q-.052-.875-.125-1.737t-.179-1.734q.581.01,1.105-.021c.222-.013.442-.032.661-.057s.455-.054.7-.089l.067,1.131c-.2-.024-.406-.04-.6-.048s-.4-.005-.592.006l-.191.011q-.012.618.007,1.229t.046,1.226c.084,0,.171,0,.257-.005l.268-.017.229-.014c.078,0,.158-.013.239-.024Z" fill="#fff"/>
            <path id="Path_6439" data-name="Path 6439" d="M287.838,139.34q-.275.006-.532.017c-.171.008-.342.016-.511.026-.255.015-.506.035-.753.056s-.5.051-.767.083q-.009-.917-.036-1.816t-.08-1.814c-.035-.583-.076-1.163-.125-1.737s-.108-1.152-.179-1.734c.033,0,.07,0,.113,0s.08,0,.132,0l.176-.011c.1-.006.217-.016.34-.028s.245-.026.368-.044q-.021.712,0,1.5t.059,1.583q.04.8.084,1.593t.073,1.533c.267-.022.527-.051.779-.086s.519-.082.8-.141Z" fill="#fff"/>
            <path id="Path_6440" data-name="Path 6440" d="M290.8,139.164q-.275.006-.532.017t-.512.026c-.255.015-.506.035-.753.057s-.5.05-.766.083q-.01-.917-.036-1.816t-.081-1.815q-.05-.875-.124-1.737t-.179-1.733c.032,0,.071,0,.113,0s.081,0,.132,0l.176-.011c.1-.006.217-.015.34-.028s.244-.027.368-.044q-.022.712,0,1.5t.059,1.583c.026.533.055,1.064.084,1.593s.054,1.041.074,1.534q.4-.034.779-.086t.8-.141Z" fill="#fff"/>
            <path id="Path_6441" data-name="Path 6441" d="M294.3,135.49a8.985,8.985,0,0,1-.035,1.685,4.078,4.078,0,0,1-.3,1.14,1.6,1.6,0,0,1-.507.658,1.259,1.259,0,0,1-.659.233,1.306,1.306,0,0,1-.682-.144,1.557,1.557,0,0,1-.584-.575,3.832,3.832,0,0,1-.436-1.095,9.165,9.165,0,0,1-.236-1.7,9.5,9.5,0,0,1,.033-1.737,4.147,4.147,0,0,1,.3-1.177,1.656,1.656,0,0,1,.51-.677,1.235,1.235,0,0,1,.66-.239,1.251,1.251,0,0,1,.681.155,1.581,1.581,0,0,1,.581.6,4.282,4.282,0,0,1,.433,1.131A9.653,9.653,0,0,1,294.3,135.49Zm-1.092.065q-.046-.771-.126-1.3a5.58,5.58,0,0,0-.185-.855,1.392,1.392,0,0,0-.226-.468.312.312,0,0,0-.249-.134.319.319,0,0,0-.238.165,1.381,1.381,0,0,0-.172.493,5.691,5.691,0,0,0-.084.874c-.012.357,0,.791.028,1.3s.071.928.124,1.269a4.953,4.953,0,0,0,.184.818,1.152,1.152,0,0,0,.226.433.334.334,0,0,0,.256.119.313.313,0,0,0,.231-.155,1.3,1.3,0,0,0,.171-.469,5.18,5.18,0,0,0,.086-.836Q293.249,136.293,293.205,135.555Z" fill="#fff"/>
          </g>
          <path id="Path_6442" data-name="Path 6442" d="M273,124.1a120.308,120.308,0,0,0,4.731,31.02S270.984,138.425,273,124.1Z" fill="#c69ce5"/>
          <path id="Path_6443" data-name="Path 6443" d="M273,123.815s10.947-11.92,22.32.289c4.686,5.031,2.4,25.48,2.4,25.48s2.995-16.591-1.353-26.113a11.184,11.184,0,0,0-6.783-5.255C283.781,116.575,277.906,117.416,273,123.815Z" fill="#dcb0ea"/>
        </g>
      </g>
      <path id="Path_6444" data-name="Path 6444" d="M240.422,100.622l4.541,5.007,1.783-2.067-4.287-4.742Z" fill="#6877ff"/>
      <path id="Path_6445" data-name="Path 6445" d="M445.016,143.554l10.288-6.786,1.321,4.51-8.211,5.405Z" fill="#6877ff"/>
      <g id="Group_195" data-name="Group 195">
        <g id="Group_192" data-name="Group 192">
          <path id="Path_6446" data-name="Path 6446" d="M328.016,108.165l-.123-.022-22.864-3.983.025-.18a56.445,56.445,0,0,1,8.139-22.128l.052-.074.09-.006c15.463-.956,24.435,4.527,24.525,4.583l.108.068-.023.126c-1.562,8.273-9.778,21.378-9.861,21.51Zm-22.567-4.313,22.384,3.9c.781-1.258,8.186-13.33,9.717-21.143-1.062-.615-9.748-5.333-24.1-4.467A56.313,56.313,0,0,0,305.449,103.852Z" fill="#d4cdfa"/>
        </g>
        <g id="Group_193" data-name="Group 193">
          <path id="Path_6447" data-name="Path 6447" d="M314.49,92.15a2.427,2.427,0,0,1-.871-.16,2.617,2.617,0,0,1-1.522-1.622,3.686,3.686,0,0,1,1.635-4.321,2.541,2.541,0,0,1,3.734,1.426,3.574,3.574,0,0,1-.059,2.45A3.266,3.266,0,0,1,314.49,92.15Zm.575-6.085a2.382,2.382,0,0,0-1.154.312,3.311,3.311,0,0,0-1.463,3.865,2.249,2.249,0,0,0,1.3,1.4,2.7,2.7,0,0,0,3.306-1.849,3.2,3.2,0,0,0,.055-2.191,2.251,2.251,0,0,0-1.3-1.4A2.077,2.077,0,0,0,315.065,86.065Z" fill="#d4cdfa"/>
        </g>
        <g id="Group_194" data-name="Group 194">
          <path id="Path_6448" data-name="Path 6448" d="M329.4,100.9a1.5,1.5,0,0,1-.516-.075c-.381-.143-.387-.854-.4-2.144-.022-2.5-.056-6.691-3.412-7.267-3.042-.522-7.876,3.087-11.407,5.722-2.526,1.887-4,2.949-4.717,2.842-1.944-.279-2.454-2.67-2.474-2.771l.365-.075c.005.022.479,2.233,2.161,2.474.616.086,2.472-1.3,4.442-2.772,3.586-2.676,8.5-6.343,11.692-5.791,3.664.63,3.7,5.014,3.723,7.634a5.245,5.245,0,0,0,.158,1.8c.664.248,2.671-.429,3.389-.711l.135.35A11.275,11.275,0,0,1,329.4,100.9Z" fill="#d4cdfa"/>
        </g>
      </g>
      <g id="Group_199" data-name="Group 199">
        <g id="Group_196" data-name="Group 196">
          <path id="Path_6449" data-name="Path 6449" d="M338.494,62.214l-.065-.086L325.558,45.1l.018-.077c.579-2.523,3.07-5.548,3.176-5.676l.031-.037.046-.015a88.206,88.206,0,0,1,18.121-3.874l.085-.008.056.064c.088.1,8.849,10.089,13.484,17.936l.124.209-16.69,3.131a16.439,16.439,0,0,0-5.077,5.016l17.473-3.862.072.332ZM325.923,45.021l12.629,16.708a16.709,16.709,0,0,1,5.318-5.287l.049-.017,16.241-3.047c-4.452-7.456-12.513-16.749-13.267-17.611A87.876,87.876,0,0,0,328.981,39.6,17.456,17.456,0,0,0,325.923,45.021Z" fill="#d4cdfa"/>
        </g>
        <g id="Group_197" data-name="Group 197">
          <path id="Path_6450" data-name="Path 6450" d="M343.37,56.983c-4.063-4.568-14.514-17.291-14.619-17.42l.26-.216c.105.128,10.553,12.847,14.612,17.41Z" fill="#d4cdfa"/>
        </g>
        <g id="Group_198" data-name="Group 198">
          <path id="Path_6451" data-name="Path 6451" d="M354.44,58.6l-.323-.1c.915-2.907,4.562-4.788,4.716-4.867l.153.3C358.949,53.955,355.311,55.833,354.44,58.6Z" fill="#d4cdfa"/>
        </g>
      </g>
      <g id="Group_206" data-name="Group 206">
        <g id="Group_200" data-name="Group 200">
          <path id="Path_6452" data-name="Path 6452" d="M245.352,214.5l-.053-.122c-.07-.161-6.994-16.221-8.041-33.5l-.009-.142.138-.032c.2-.047,20.678-4.743,36.17-6.864l.147-.02.037.144c.058.227,5.8,22.813,5.8,33.862v.139l-.135.026ZM237.6,181c1.023,16.367,7.311,31.605,7.952,33.121l33.658-6.433c-.045-10.59-5.264-31.547-5.755-33.5C258.666,176.223,239.418,180.58,237.6,181Z" fill="#d4cdfa"/>
        </g>
        <g id="Group_204" data-name="Group 204">
          <g id="Group_201" data-name="Group 201">
            <path id="Path_6453" data-name="Path 6453" d="M251.152,201.59l-.433-2.306.186-.014c.138-.01.274-.023.411-.041l.249-.031q-.21-1.321-.418-2.627c-.149-.924-.316-1.858-.5-2.776q-.184-.925-.389-1.824l-.378-1.654c-.1.021-.205.045-.309.069q-.238.057-.484.125l-.173.047-.42-2.239.175-.023c.465-.062.927-.13,1.39-.206s.924-.162,1.389-.254l.5-.1c.163-.033.33-.072.5-.118l.178-.047.357,2.144-.158.032q-.211.043-.418.074c-.083.013-.167.027-.251.042.126,1.04.272,2.08.438,3.1.173,1.068.369,2.154.581,3.226.172.875.365,1.765.573,2.647q.207-.043.423-.093.3-.068.595-.146l.18-.047.316,2.162-.165.024c-.24.036-.479.074-.718.115s-.477.086-.715.134q-.59.117-1.174.258t-1.164.3Zm-.037-2,.3,1.58q.5-.137,1-.257.592-.143,1.187-.26c.24-.049.481-.093.723-.135q.28-.048.562-.092l-.214-1.462c-.142.035-.284.07-.424.1q-.3.07-.59.127l-.157.032-.037-.157c-.223-.938-.43-1.885-.613-2.817-.213-1.076-.409-2.165-.583-3.237s-.329-2.168-.459-3.264l-.018-.153.151-.031c.139-.028.279-.052.416-.074.082-.012.164-.026.245-.041l-.244-1.462q-.171.043-.341.077l-.5.1q-.7.14-1.4.255c-.408.068-.815.129-1.225.185l.288,1.536c.108-.029.215-.056.32-.08.163-.038.322-.074.48-.105l.158-.032.451,1.972q.206.9.391,1.833c.182.923.349,1.86.5,2.788s.3,1.862.446,2.8l.027.174-.173.019c-.138.016-.277.032-.415.049C251.279,199.573,251.2,199.582,251.115,199.589Z" fill="#d4cdfa"/>
          </g>
          <g id="Group_202" data-name="Group 202">
            <path id="Path_6454" data-name="Path 6454" d="M255.641,200.88l0-.212c-.011-.522-.051-1.111-.12-1.751-.071-.66-.158-1.339-.26-2.02-.105-.71-.225-1.429-.353-2.135q-.194-1.083-.4-2.1-.205-1.045-.4-1.95t-.347-1.588q-.186-.8-.335-1.459l-.044-.2.2-.009c.2-.008.4-.022.607-.042s.418-.046.623-.073.4-.059.591-.091.363-.062.517-.094l.282-.056a2.063,2.063,0,0,0,.211-.051,1.648,1.648,0,0,0,.185-.046l.155-.05,1.777,5.056q.4,1.136.7,1.96l-.02-.309q-.049-.743-.109-1.469t-.126-1.42c-.046-.462-.089-.9-.133-1.307q-.156-1.447-.321-2.8l-.02-.17.169-.017.436-.05c.138-.015.3-.038.486-.069s.394-.07.619-.115.468-.1.729-.159.523-.134.8-.22l.182-.057.031.19c.371,2.251.722,4.218,1.044,5.847.235,1.193.456,2.237.655,3.105s.369,1.578.511,2.143c.167.655.322,1.207.463,1.639l.057.175-2.455.555-.031-.173q-.244-1.384-.49-2.816-.111-.6-.231-1.284c-.08-.45-.162-.909-.248-1.372s-.171-.926-.259-1.39q-.09-.468-.176-.911.042.994.1,2.164.072,1.3.176,2.749c.07.974.153,1.938.246,2.869l.016.155-2,.345-.047-.131q-.492-1.364-.964-2.684t-.9-2.51q-.337-.94-.632-1.772l.167.847q.192.972.4,1.956t.389,1.856q.186.867.35,1.561c.108.452.2.809.282,1.059l.055.169Zm-1.844-13.1c.088.39.185.81.291,1.265s.218.986.347,1.592.262,1.257.4,1.955q.2,1.02.4,2.106c.129.71.247,1.432.354,2.145.1.685.19,1.37.261,2.035.061.564.1,1.09.115,1.568l2.04-.534c-.071-.239-.15-.547-.237-.914q-.167-.7-.352-1.568t-.392-1.858q-.2-.985-.4-1.959l-.619-3.136.321-.087q.259.753.619,1.766t.785,2.2q.426,1.188.9,2.509.447,1.257.916,2.552l1.423-.245c-.087-.885-.165-1.8-.232-2.722q-.105-1.452-.176-2.754t-.113-2.389q-.041-1.083-.065-1.772l-.052-1.56.38,1.513c.058.23.112.472.164.731l.159.806q.127.64.259,1.336c.088.463.176.928.262,1.391s.168.923.248,1.375.157.881.231,1.284q.23,1.345.46,2.643l1.758-.4c-.128-.409-.266-.908-.412-1.485s-.315-1.282-.515-2.151-.42-1.917-.657-3.115c-.314-1.586-.655-3.492-1.014-5.669-.221.065-.436.122-.643.171-.264.062-.51.116-.738.161s-.439.085-.631.116-.361.056-.5.072l-.27.032q.155,1.276.3,2.636.066.615.133,1.31c.045.464.087.938.128,1.424s.077.978.11,1.475.061.98.085,1.45l.056,1.094-.379-1.027q-.383-1.038-1.085-3.036l-1.673-4.757-.049.01a1.95,1.95,0,0,1-.226.055l-.282.056c-.156.032-.332.064-.527.1s-.395.064-.6.092-.421.054-.636.074C254.077,187.765,253.936,187.776,253.8,187.784Z" fill="#d4cdfa"/>
          </g>
          <g id="Group_203" data-name="Group 203">
            <path id="Path_6455" data-name="Path 6455" d="M268.34,198.391a2.979,2.979,0,0,1-.321-.019,2.721,2.721,0,0,1-.882-.267,3.723,3.723,0,0,1-.921-.658,5.4,5.4,0,0,1-.891-1.147,9.924,9.924,0,0,1-.8-1.723,16.438,16.438,0,0,1-.646-2.408,13.688,13.688,0,0,1-.285-2.475,9.078,9.078,0,0,1,.158-1.9,5.153,5.153,0,0,1,.478-1.393,4.145,4.145,0,0,1,.674-.944,2.915,2.915,0,0,1,.754-.567,2.833,2.833,0,0,1,.68-.249,3.931,3.931,0,0,1,.551-.05,3.2,3.2,0,0,1,.51.047,1.5,1.5,0,0,1,.525.189l.073.043.21,2.174-.232-.064a2.454,2.454,0,0,0-.475-.086,1.551,1.551,0,0,0-.386.023,1,1,0,0,0-.54.288,1.707,1.707,0,0,0-.361.58,3.631,3.631,0,0,0-.2.792,6.391,6.391,0,0,0-.065.89,12.558,12.558,0,0,0,.212,2.381,13.267,13.267,0,0,0,.612,2.026c.1.247.22.5.354.755a4.674,4.674,0,0,0,.429.668,2.417,2.417,0,0,0,.5.484,1.169,1.169,0,0,0,.306.158c-.153-.69-.325-1.375-.513-2.039-.214-.754-.46-1.514-.73-2.258l-.065-.181,2.505-.544.01.2c.013.221.03.472.052.754s.052.58.09.9.084.651.137,1,.113.693.182,1.039c.014.075.04.185.078.325s.081.3.127.479.1.355.149.541.1.359.149.521.088.3.125.417a1.565,1.565,0,0,0,.072.209l.064.128-.115.084a4.221,4.221,0,0,1-.668.4c-.22.105-.419.191-.6.258a5.729,5.729,0,0,1-.622.182A2.364,2.364,0,0,1,268.34,198.391Zm-1.446-13.466a3.672,3.672,0,0,0-.494.046,2.537,2.537,0,0,0-1.257.723,3.8,3.8,0,0,0-.618.868,4.825,4.825,0,0,0-.444,1.3,8.714,8.714,0,0,0-.152,1.827,13.306,13.306,0,0,0,.279,2.414,16.13,16.13,0,0,0,.631,2.357,9.726,9.726,0,0,0,.769,1.665,5.06,5.06,0,0,0,.835,1.076,3.425,3.425,0,0,0,.838.6,2.416,2.416,0,0,0,.774.236,2.22,2.22,0,0,0,.668-.019,5.39,5.39,0,0,0,.576-.17c.166-.063.356-.144.568-.245a3.771,3.771,0,0,0,.51-.3c-.012-.035-.025-.078-.04-.126-.036-.117-.078-.257-.126-.421s-.1-.338-.15-.525-.1-.368-.15-.544-.09-.335-.127-.481-.066-.264-.083-.345c-.07-.351-.131-.7-.185-1.053s-.1-.686-.138-1.008-.069-.627-.091-.913q-.024-.306-.04-.565l-1.752.38c.247.694.473,1.4.672,2.1.213.752.406,1.531.574,2.314l.049.227-.229-.025a1.467,1.467,0,0,1-.7-.27,2.782,2.782,0,0,1-.566-.551,4.988,4.988,0,0,1-.46-.717c-.138-.265-.262-.529-.368-.787a13.542,13.542,0,0,1-.631-2.086,12.924,12.924,0,0,1-.218-2.45,6.789,6.789,0,0,1,.068-.933,3.925,3.925,0,0,1,.219-.866,2.049,2.049,0,0,1,.432-.692,1.326,1.326,0,0,1,.715-.384,1.813,1.813,0,0,1,.471-.028,2.4,2.4,0,0,1,.309.042l-.148-1.526a1.2,1.2,0,0,0-.338-.109A3.092,3.092,0,0,0,266.895,184.925Z" fill="#d4cdfa"/>
          </g>
        </g>
        <g id="Group_205" data-name="Group 205">
          <path id="Path_6456" data-name="Path 6456" d="M269.578,209.81l-.283-.176,8.682-14.153.283.176Z" fill="#d4cdfa"/>
        </g>
      </g>
      <g id="Group_208" data-name="Group 208">
        <ellipse id="Ellipse_25" data-name="Ellipse 25" cx="1.937" cy="1.946" rx="1.937" ry="1.946" transform="translate(320.89 48.322)" fill="url(#linear-gradient-5)"/>
        <ellipse id="Ellipse_26" data-name="Ellipse 26" cx="5.231" cy="5.256" rx="5.231" ry="5.256" transform="translate(305.372 46.275)" fill="url(#linear-gradient-6)"/>
        <ellipse id="Ellipse_27" data-name="Ellipse 27" cx="3.53" cy="3.546" rx="3.53" ry="3.546" transform="translate(289.301 59.374)" fill="url(#linear-gradient-7)"/>
        <path id="Path_6457" data-name="Path 6457" d="M305.028,52.232s-10.75,2-11.47,14.24c0,0,.9,14.282,6.034,24.86l18.768-.623,3.87,2.586h0L319.1,74.143Z" fill="url(#linear-gradient-8)"/>
        <path id="Path_6458" data-name="Path 6458" d="M299.593,91.332l2.775-2.439H319.6l-1.241,1.816Z" opacity="0.62" fill="url(#linear-gradient-9)" style="mix-blend-mode: multiply;isolation: isolate"/>
        <path id="Path_6459" data-name="Path 6459" d="M296.869,65.135s.595,13.153,5.5,23.758a32.4,32.4,0,0,0,9.022,1.22c5.6,0,8.211-1.22,8.211-1.22l2.629,4.4s2.963-16.388.48-30.561c0,0-1.581-7-6.162-9.615C310.285,49.55,296.266,51.182,296.869,65.135Z" fill="url(#linear-gradient-5)"/>
        <g id="Group_207" data-name="Group 207">
          <path id="Path_6460" data-name="Path 6460" d="M304.554,65.017q.017,1.807.058,3.582t.119,3.56c.152,0,.3,0,.459-.01l.458-.027c.193-.011.391-.026.593-.044s.406-.039.61-.064c0-.267-.013-.53-.028-.788s-.031-.523-.047-.8q-.082-1.383-.19-2.756t-.254-2.762l2.229-.133q-.034,2.2.007,4.371t.172,4.36q.064,1.075.153,2.138t.2,2.143l-2.065.123q-.019-1.086-.046-2.162t-.055-2.152q-.518,0-1.031.012c-.341.005-.682.017-1.02.038l-.072,0,.111,1.875q.037.637.074,1.256c.025.413.055.828.092,1.246L303,78.153q-.033-1.313-.095-2.593t-.138-2.572q-.231-3.914-.625-7.828Z" fill="#fff"/>
          <path id="Path_6461" data-name="Path 6461" d="M313.98,77.443q-.363,0-.726.017c-.242.008-.484.02-.726.035q-.6.036-1.195.094c-.4.038-.8.086-1.191.139l-.1-1.957q.21.015.419.016t.418.007q-.028-1.413-.061-2.814t-.116-2.8q-.055-.937-.137-1.85t-.164-1.841q-.235.015-.479.038t-.5.058l-.094-1.9q.7,0,1.4-.015t1.405-.061l.508-.03q.253-.015.515-.049l.052,1.815c-.138.008-.276.013-.412.015s-.275.008-.414.016q-.029,1.646.012,3.265t.137,3.258q.084,1.429.223,2.845c.194-.011.391-.026.593-.044s.4-.04.61-.064Z" fill="#fff"/>
          <path id="Path_6462" data-name="Path 6462" d="M319.368,64.005q-.105,2.536-.1,5.112t.126,5.062l-1.2.108q-.212-2.5-.468-5.069t-.54-5.065Zm.572,12.444a1,1,0,0,1-.062.415,1.145,1.145,0,0,1-.206.345,1.039,1.039,0,0,1-.323.243,1.06,1.06,0,0,1-.407.107,1,1,0,0,1-.408-.059,1.128,1.128,0,0,1-.344-.2,1.05,1.05,0,0,1-.294-1.134,1.075,1.075,0,0,1,.207-.345,1.064,1.064,0,0,1,.318-.248.988.988,0,0,1,.4-.105,1.054,1.054,0,0,1,.417.057,1.019,1.019,0,0,1,.349.208,1.22,1.22,0,0,1,.246.318A.97.97,0,0,1,319.939,76.449Z" fill="#fff"/>
        </g>
        <path id="Path_6463" data-name="Path 6463" d="M302.368,88.893S294.7,72.329,297.54,59.576C297.54,59.576,297.9,78.65,302.368,88.893Z" fill="#ed39ac"/>
        <path id="Path_6464" data-name="Path 6464" d="M303.916,52.651s6.837-2.352,12.663,1.854,6.739,12.712,6.739,12.712-.625-10.885-6.77-14.1C310.277,49.842,303.916,52.651,303.916,52.651Z" fill="#ed39ac"/>
      </g>
    </g>
    <g id="Group_212" data-name="Group 212">
      <path id="Path_6465" data-name="Path 6465" d="M423.434,255.255H405.807c-.284-.638-.56-1.291-.837-1.952V253.3c-3.594-8.551-6.523-18.071-6.523-18.071-1.7-1.284-4.812,0-4.812,0a20.533,20.533,0,0,0-1.225,2.935,90.654,90.654,0,0,0-3.146,14.625.132.132,0,0,0-.008.045c-.284,2-.327,2.425-.327,2.425H372.238a105.6,105.6,0,0,1-.317-14.489l.007-.105c.06-1.622.142-2.958.209-3.9l.015-.263c.06-.818.1-1.269.1-1.269.986-6.547,34.117-18.356,34.117-18.356s10.334-.848,12.882,8.679c.635,2.38,1.218,5.428,1.726,8.664.007.068.022.135.03.2.037.225.075.458.1.683.022.15.045.293.067.435.03.173.052.345.082.51.015.128.03.248.052.368.022.143.037.278.06.413s.037.248.052.375c.015.075.022.15.03.218.015.12.03.233.052.353.007.1.022.2.037.293C422.739,246.674,423.434,255.255,423.434,255.255Z" fill="url(#linear-gradient-11)"/>
      <path id="Path_6466" data-name="Path 6466" d="M421.558,238.071l-.007-.007c-.187-.045-3.333-.773-9.542,3.183-6.269,3.994-7.009,11.719-7.039,12.05-3.594-8.551-6.523-18.071-6.523-18.071-1.7-1.284-4.812,0-4.812,0a20.533,20.533,0,0,0-1.225,2.935H392.4c-1.786,4.9-3.019,13.724-3.138,14.625a.132.132,0,0,0-.008.045.119.119,0,0,0-.007.03s-1.278-4.122-6.658-7.68a30.31,30.31,0,0,0-10.67-4.414l.007-.105.209-3.9.015-.263,37.569-8.859s9.915.8,10.386,2.132a41.5,41.5,0,0,1,.874,4.444c.007.068.022.135.03.2.037.233.075.458.1.683.022.15.045.293.067.435.03.173.052.345.082.51.015.128.03.248.052.368.022.143.037.285.06.413s.037.248.052.375c.015.075.022.15.03.218.015.12.03.233.052.353C421.543,237.958,421.558,238.071,421.558,238.071Z" opacity="0.86" fill="url(#linear-gradient-12)" style="mix-blend-mode: multiply;isolation: isolate"/>
      <path id="Path_6467" data-name="Path 6467" d="M340.189,135.72a92.75,92.75,0,0,1-3.823-14.224,27.106,27.106,0,0,1-8.282-9.27,54.287,54.287,0,0,0-3.044-5.666c-1.628-2.561-2.832-6.544-2.266-7.824s2.337,1.155,3.185,2.889a39.444,39.444,0,0,0,2.832,4.437l.566-.64s-1.416-4.912-1.77-7.044a15.948,15.948,0,0,1,.283-6.328c.425-.924,1.7-.284,2.124.5,0,0-.424-1.423.142-1.92s2.831.854,3.61,3.342.708,3.628,1.063,4.623a22.8,22.8,0,0,0,.92,2.134,58.369,58.369,0,0,1-.991-6.472c-.142-2.418.22-4,1-4.147s2.069,2.156,2.109,5.005a15.189,15.189,0,0,0,1.47,5.544,20.688,20.688,0,0,0,2.926,4.449,1.629,1.629,0,0,0,.986-1.511c-.07-1.067-.785-3.236-.326-4.811.637-2.181,2.832-3.177,3.54-2.821s-.732,4.544-.024,6.646a37.412,37.412,0,0,1,1.487,5.729c.212,1.423-3.752,7.539-3.894,8.606s2.549,6.971,2.549,6.971S343.091,134.013,340.189,135.72Z" fill="url(#linear-gradient-13)"/>
      <path id="Path_6468" data-name="Path 6468" d="M344.371,118.546s.7-.2,1.834.649.755,3.509.755,3.509a56.657,56.657,0,0,0,10.76,13.016c7.456,6.9,19.16,10.313,21.991,11.167a13.434,13.434,0,0,1,4.442,2.21l-9.916,17.8A113.7,113.7,0,0,0,359.7,155.231c-8.117-5.405-11.42-6.258-14.818-9.862s-6.135-10.811-6.8-11.57-2.611-1.327-2.815-2.75,2.221-4.212,2.221-4.212l.971,2.7s6.513-2.99,6.626-9.053Z" fill="url(#linear-gradient-14)"/>
      <path id="Path_6469" data-name="Path 6469" d="M384.265,149.212,374.238,166.9s-.359-.353-1.024-.968l-.007-.008a115.56,115.56,0,0,0-13.5-10.691c-2.653-1.764-4.79-3.048-6.583-4.092-3.706-2.162-5.948-3.348-8.234-5.773-3.4-3.6-6.135-10.811-6.8-11.569-.575-.661-2.137-1.186-2.66-2.252l-.007-.008a1.544,1.544,0,0,1-.149-.488c-.2-1.426,2.227-4.212,2.227-4.212l.971,2.7s6.508-3,6.62-9.054l-.889-1.937a2.6,2.6,0,0,1,2,.653,2.487,2.487,0,0,1,.77,1.734,7.505,7.505,0,0,1-.015,1.772,50.437,50.437,0,0,0,6.546,8.754s.015.015.045.053c1.21,1.336,2.6,2.755,4.169,4.212,7.457,6.9,19.166,10.315,22,11.164a14.544,14.544,0,0,1,2.877,1.224A10.923,10.923,0,0,1,384.265,149.212Z" fill="url(#linear-gradient-4)"/>
      <path id="Path_6470" data-name="Path 6470" d="M344.6,119.405a7.022,7.022,0,0,1-7.366,6.36,26.478,26.478,0,0,0,1.235,3.767s6.3-2.586,6.626-9.053Z" fill="url(#linear-gradient-16)"/>
      <path id="Path_6471" data-name="Path 6471" d="M366.727,158.764l4.7-.569v1.92l-3.562.427Z" fill="#ff97ed"/>
      <path id="Path_6472" data-name="Path 6472" d="M341.881,104.665s-2.931,1.112-4.65,7.072c0,0,3.179-5,5.506-6,1.855-.793.328-4.8.04-5.121C343.834,104.6,341.881,104.665,341.881,104.665Z" fill="url(#linear-gradient-17)"/>
      <path id="Path_6473" data-name="Path 6473" d="M328.273,107.294a22.606,22.606,0,0,1,9.91-6.266A11.325,11.325,0,0,0,328.273,107.294Z" fill="url(#linear-gradient-18)"/>
      <path id="Path_6474" data-name="Path 6474" d="M346.972,120.931c-.56,1.817-1.657,5.565-3.928,8.08-4.095,4.535-7.422,2.581-7.616,2.536l-.007-.008a1.544,1.544,0,0,1-.149-.488c-.2-1.426,2.227-4.212,2.227-4.212l.971,2.7s6.508-3,6.62-9.054l-.889-1.937a2.6,2.6,0,0,1,2,.653A2.487,2.487,0,0,1,346.972,120.931Z" opacity="0.62" fill="url(#linear-gradient-12)" style="mix-blend-mode: multiply;isolation: isolate"/>
      <path id="Path_6475" data-name="Path 6475" d="M382.592,148.108l-9.377,17.823-.007-.008a115.56,115.56,0,0,0-13.5-10.691c-2.653-1.764-4.79-3.048-6.583-4.092a101.151,101.151,0,0,1,15.729,8.641l1.427-13.611s-1.42-.233-7.27-5.068a65.539,65.539,0,0,1-9.46-9.595c1.21,1.336,2.6,2.755,4.169,4.212,7.457,6.9,19.166,10.315,22,11.164A14.544,14.544,0,0,1,382.592,148.108Z" opacity="0.62" fill="url(#linear-gradient-12)" style="mix-blend-mode: multiply;isolation: isolate"/>
      <path id="Path_6476" data-name="Path 6476" d="M422.456,79.859s2.512-12.287,12.859-16.24a12.855,12.855,0,0,1,9.272,8.863l-5.256,4.294,5.628-2.628a8.157,8.157,0,0,1,1.2,6.863,72.165,72.165,0,0,1-13.015,5.611,28.935,28.935,0,0,1,13.073,3.489,4.12,4.12,0,0,1-1.12,3.082,33.427,33.427,0,0,0-12.057-4.426L429.632,90.9Z" fill="url(#linear-gradient-21)"/>
      <path id="Path_6477" data-name="Path 6477" d="M435.315,63.619s-4.447.921-9.4,10.586c0,0,1.511,1.842,7.126,1.059a74.116,74.116,0,0,0,11.548-2.783l-5.256,4.294-5.915,3.64a51.213,51.213,0,0,0,7.22-2.448c3.611-1.565,4.323-3.821,4.323-3.821a7.721,7.721,0,0,1,1.2,6.863S439.1,85.1,433.143,86.621c0,0,3.2,1.736,7.211,3.5s4.742,3.071,4.742,3.071-6.631-3.988-12.057-4.426l-9.25-12.987S426.973,66.887,435.315,63.619Z" opacity="0.62" fill="url(#linear-gradient-12)" style="mix-blend-mode: multiply;isolation: isolate"/>
      <path id="Path_6478" data-name="Path 6478" d="M421.147,78.406s.566-2.327,2.643-2.628,9.249,4.559,9.25,12.987c0,0,.094,1.544-2.36,1.336S421.147,78.406,421.147,78.406Z" fill="#a74aff"/>
      <path id="Path_6479" data-name="Path 6479" d="M393.988,144.113a22.228,22.228,0,0,0,0,4.836l1.45,1s-6.476,7.041-11.148,7.041-1.416-6.259-1.416-6.259a3.517,3.517,0,0,0,1.416-1.849c.283-1.137-.708-4.409-.708-4.409Z" fill="url(#linear-gradient-16)"/>
      <path id="Path_6480" data-name="Path 6480" d="M416.709,133.8c-7.674,7.71-21.378,11.929-34.252,11.006l-2.227-.218-.03-.008h-.037c-.605-.075-1.218-.158-1.823-.255-13.965-2.275-21.654-15.48-21.467-22.125s3.019-9.64,4.909-13.056,2.727-16.584,8.944-24.137c4.939-5.991,19.233-7.988,29.417-7.395A27.523,27.523,0,0,1,424.779,96.96C428.552,108.716,425.2,125.263,416.709,133.8Z" fill="url(#linear-gradient-13)"/>
      <path id="Path_6481" data-name="Path 6481" d="M416.709,133.8c-7.674,7.71-21.378,11.929-34.252,11.006l-2.227-.218-.03-.008c8.757-.511,23.6-1.869,28.537-11.552,5.247-10.292,2.307-17.532,2.307-17.532-9.624,7.493-23.784.653-23.784.653C385.752,100.4,393.4,84.542,393.4,84.542c-10.491-3.423-16.184,3.551-16.184,3.551a40,40,0,0,1-6.314,23.131c-6.829,3.213-9.116-2.08-9.116-2.08,1.883-3.416,2.727-16.584,8.944-24.137,4.939-5.991,19.233-7.988,29.417-7.395A27.523,27.523,0,0,1,424.779,96.96C428.552,108.716,425.2,125.263,416.709,133.8Z" fill="url(#linear-gradient-25)"/>
      <path id="Path_6482" data-name="Path 6482" d="M391.639,77.76a13.98,13.98,0,0,0-8.907-2.282c-4.955.569-9.141,2.893-11.591,9.062l-1.867,2.48s2.133-9.835,7.512-13.959,18.028.816,18.028.816a37.961,37.961,0,0,1,9.946-.775c9.308.338,17.26,3.159,25.259,13.33,7.9,10.048,4.105,33.286-.708,39.4s-12.6,7.965-12.6,7.965l-.074-8.61s6.383-13.529,3.944-26.1c-2.6-13.371-10.589-18.252-17.177-19.819C395.45,77.379,391.639,77.76,391.639,77.76Z" fill="url(#linear-gradient-26)"/>
      <path id="Path_6483" data-name="Path 6483" d="M417.088,124.791s6.229-6.448,11.609-3.983c6.383,2.925,4.53,13.371-.566,17.638-4.428,3.708-12.553,2.276-15.007-2.56C413.124,135.886,412.18,128.869,417.088,124.791Z" fill="url(#linear-gradient-27)"/>
      <path id="Path_6484" data-name="Path 6484" d="M416.1,129.817s4.436-4.363,9.439-3.888,5.049,4.836,5.049,4.836a4.985,4.985,0,0,0-4.265-3.224A4.476,4.476,0,0,0,422,129.817s1.651-.095,2.454,2.513-3.776,5.6-6.513,3.983S416.1,129.817,416.1,129.817Z" fill="#e87a8d"/>
      <path id="Path_6485" data-name="Path 6485" d="M370.9,84.54s7.16-6.134,20.738-6.78c0,0-6.924-4.9-11.832-3.193C375.391,76.1,371.278,82.667,370.9,84.54Z" fill="url(#linear-gradient-8)"/>
      <path id="Path_6486" data-name="Path 6486" d="M393.211,77.738s-8.745-5.959-18.947-1.887c-9.989,3.986-11.263,17.923-10.069,25.773l2.044-5.947s-.708-15.291,8.07-18.99a15.592,15.592,0,0,1,15.167,1.285Z" fill="url(#linear-gradient-29)"/>
      <path id="Path_6487" data-name="Path 6487" d="M405.665,177.327c1.225,10.083,5.686,23.288,8.683,30.143.127.3.254.593.381.871,2.974,6.539,4.812,5.683,5.522,7.538s-.568,5.976-.568,5.976a11.08,11.08,0,0,1,1.278,7.395l-.015.015c-.351.383-6.239,6.449-24.643,8.521a97.092,97.092,0,0,1-15.594.631,2.236,2.236,0,0,0-.224-.008l-.411-.023h-.03c-.5-.03-.979-.068-1.435-.105a1.956,1.956,0,0,1-.209-.015l-.687-.068c-.672-.068-1.113-.128-1.113-.128-.374-.045-.725-.09-1.061-.135a21.6,21.6,0,0,1-5.335-1.291,8.949,8.949,0,0,1,0-5.405c-.045-.038-.1-.075-.142-.113-.635-.5-3.168-2.635-3.325-5.105v-.045c-.142-2.845,1.412-4.692,2.406-7.965s1.27-38.123,2.974-47.65,8.638-20.631,8.638-20.631-1.039-2.845,1.016-2.7,2.54.841,2.54.841a2.44,2.44,0,0,1-.045,1.344c-1.218,2.147-3.609,5.968.351,6.066,5.664.143,9.235-9.107,9.235-9.107,1.92.143,1.584,2.425,1.584,2.425a16.966,16.966,0,0,1,4.319,1.952,73.559,73.559,0,0,1,11.006,11.982c4.677,6.261,13.734,9.107,18.127,14.227s3.333,12.718,3.333,12.718c-2.212,1.989-11.1,2.508-11.1,2.508a37.846,37.846,0,0,0-5.671-8.964C412.076,179.317,405.665,177.327,405.665,177.327Z" fill="url(#linear-gradient-14)"/>
      <path id="Path_6488" data-name="Path 6488" d="M408.456,217.512s3.459.933,3.922,1.854a7.575,7.575,0,0,1,.557,2.391l1.109-.83s.377-1.789-.059-2.353-2.659-1.106-2.659-1.106Z" fill="#ffacff"/>
      <path id="Path_6489" data-name="Path 6489" d="M396.306,214.975a28.1,28.1,0,0,1-4.7,3.651l2.621.986s3.692-3.248,4.457-4.637Z" fill="#ffacff"/>
      <path id="Path_6490" data-name="Path 6490" d="M420.961,229.249s-5.664,6.4-24.658,8.536-26.1-1.141-26.1-1.141c27.422,6.117,48.2-6.514,48.2-6.514,1.248-3.041-2.31-7.571-2.31-7.571-20.862,8.393-45.886,8.679-45.886,8.679-.045-.038-.1-.075-.142-.113-.063-.049-.147-.118-.243-.2-2.954-2.381-3.082-4.58-3.082-4.908v-.045s10.3,3.318,25.411.285a87.573,87.573,0,0,0,26.639-10.337s-24.725,1.517-27.6,0-7.031-5.5-7.031-5.5l30.195-2.95c.127.3.254.593.381.871,2.974,6.539,4.812,5.683,5.522,7.538s-.568,5.976-.568,5.976A11.08,11.08,0,0,1,420.961,229.249Z" opacity="0.62" fill="url(#linear-gradient-12)" style="mix-blend-mode: multiply;isolation: isolate"/>
      <g id="Group_210" data-name="Group 210">
        <path id="Path_6491" data-name="Path 6491" d="M395.438,157.887h28l1.959,1.328-6.654,53.627-1.612.231-21.69-2.649Z" fill="url(#linear-gradient-32)"/>
        <path id="Path_6492" data-name="Path 6492" d="M423.435,157.887l-6.308,55.186-8.569-.914,6.69-54.272Z" fill="url(#linear-gradient-33)"/>
        <path id="Path_6493" data-name="Path 6493" d="M377.447,210.234s-.681-36.605,1.642-55.571c0,0,20-1.1,34.72-.338l1.647.906-4.6,58.986-2.3.758Z" fill="url(#linear-gradient-34)"/>
        <path id="Path_6494" data-name="Path 6494" d="M415.318,156.986s2.9,2.418,5.922,2.608L416,211.941a7.309,7.309,0,0,0-5.058,1.245Z" fill="url(#linear-gradient-35)"/>
        <path id="Path_6495" data-name="Path 6495" d="M415.456,155.232l-1.647-.906-5.25,60.65,2.3-.759Z" fill="url(#linear-gradient-36)"/>
      </g>
      <path id="Path_6496" data-name="Path 6496" d="M381.034,187.794s3.492,4.446,5.285,6.272l1.51,1.541-4.231.16a45.909,45.909,0,0,0,6.921,2.4c3.115.711,19.408,1,19.408,1h2.1l.192-2.462,5.245-.6,1.485,1,1.752-.1.536-4.322-2.407-5.328-17.2,1Z" opacity="0.62" fill="url(#linear-gradient-37)" style="mix-blend-mode: multiply;isolation: isolate"/>
      <path id="Path_6497" data-name="Path 6497" d="M409.348,183.586l-1.51-.047s-1.132-4.979-2.171-6.212-4.814-1.992-7.267-3.509-3.3-2.276-3.87-1.422.106,4.03,1.775,4.836,3.415,1.138,3.793,1.612a3.169,3.169,0,0,1,.425,1.47s-4.908.759-7.456-.379a16.633,16.633,0,0,0-6.984-1.755c-2.124.047-2.785.9-2.738,1.375s4.059,2.229,5.758,2.987,2.973,1.47,2.973,1.47a15.525,15.525,0,0,1-4.389.427c-1.935-.19-3.587-1-5.71-.759s-2.737,1.091-2.879,1.565,1.274,1,1.274,1a.645.645,0,0,0-.424.616c-.047.522,3.067,2.939,5.239,4.173a15.159,15.159,0,0,0,5.38,1.469,1.671,1.671,0,0,1-.708,1.138c-.66.474-2.313.474-3.539.427s-3.681-.047-4.153.711,3.492,1.565,5.428,1.849,8.4-.189,12.458-1.185a21.173,21.173,0,0,0,7.244-3.532l6.253.119S413.548,185.526,409.348,183.586Z" fill="url(#linear-gradient-38)"/>
      <path id="Path_6498" data-name="Path 6498" d="M389.356,102.608s1.151-7.077,6.245-8.3c5.474-1.318,12.52,3.8,12.957,11.762Z" fill="#77485e"/>
      <path id="Path_6499" data-name="Path 6499" d="M372.975,101.029s.817-7.2-2.074-11.255-5.289,6.5-5.289,6.5Z" fill="#77485e"/>
      <path id="Path_6500" data-name="Path 6500" d="M432,189.842c-.732.668-4.154,2.5-14.234,3.206a7.561,7.561,0,0,1-4.222,1.066,3.431,3.431,0,0,1-2.645-2.14l2.645.053s-.9-6.787-4.991-8.468c0,0-.463-2.095.6-2.515.852-.338,2.742.691,2.742.691a22.6,22.6,0,0,0,5.948-1.7c3.609-1.494,4.057-4.5,6.037-4.5s5.582,1.419,6.941,6.066c.217.751.418,1.456.59,2.117C432.318,187.132,432.61,189.287,432,189.842Z" fill="url(#linear-gradient-14)"/>
      <path id="Path_6501" data-name="Path 6501" d="M396.96,95.749c-4.217.185-7.716,4.552-8.357,10.17-.587,5.146.007,7.966,2.235,9.815s12.209,3.229,15.812-.569C410.764,110.827,409.419,95.2,396.96,95.749Z" fill="url(#linear-gradient-35)"/>
      <path id="Path_6502" data-name="Path 6502" d="M395.6,84.233a12.85,12.85,0,0,0,.873,4.524s7.459,1.386,10.478,3.66A21.318,21.318,0,0,1,412,98.1a19.252,19.252,0,0,0-4.314-7.61C404.475,87.007,397.37,86.366,395.6,84.233Z" fill="url(#linear-gradient-41)"/>
      <path id="Path_6503" data-name="Path 6503" d="M370.67,85.165a5.36,5.36,0,0,1,5.9,3.968s-.35-5.81-2.079-6.95A6.065,6.065,0,0,0,370.67,85.165Z" fill="url(#linear-gradient-42)"/>
      <path id="Path_6504" data-name="Path 6504" d="M372.975,101.029c-.232,3.986-1.457,8.041-3.265,9.317a.888.888,0,0,1-.112.068.285.285,0,0,1-.082.06c-2.115,1.231-7.151-.863-6.889-3.446.374-3.731,3.161-12.432,4.984-14.655,1.345-1.629,3.153-2.29,4.752,2.545A17.142,17.142,0,0,1,372.975,101.029Z" fill="url(#linear-gradient-35)"/>
      <ellipse id="Ellipse_28" data-name="Ellipse 28" cx="6.973" cy="7.006" rx="6.973" ry="7.006" transform="translate(392 103.074)" fill="url(#radial-gradient)"/>
      <path id="Path_6505" data-name="Path 6505" d="M403.8,110.08a4.828,4.828,0,1,1-4.828-4.851A4.839,4.839,0,0,1,403.8,110.08Z" fill="url(#linear-gradient-44)"/>
      <path id="Path_6506" data-name="Path 6506" d="M372.975,101.029c-.232,3.986-1.457,8.041-3.265,9.317a.888.888,0,0,1-.112.068,2.712,2.712,0,0,1-1.733.345c-2.242-.345-3.579-3.724-3-7.553s2.869-6.644,5.111-6.306C371.5,97.14,372.609,98.784,372.975,101.029Z" fill="url(#radial-gradient-2)"/>
      <ellipse id="Ellipse_29" data-name="Ellipse 29" cx="4.85" cy="2.839" rx="4.85" ry="2.839" transform="matrix(0.15, -0.989, 0.988, 0.152, 365.957, 108.282)" fill="url(#linear-gradient-45)"/>
      <path id="Path_6507" data-name="Path 6507" d="M393.918,107.439a1.367,1.367,0,1,1-1.367-1.373A1.371,1.371,0,0,1,393.918,107.439Z" fill="#fff"/>
      <path id="Path_6508" data-name="Path 6508" d="M365.811,101.773c-.069.755-.475,1.336-.908,1.3s-.728-.684-.659-1.44.475-1.336.908-1.3S365.88,101.017,365.811,101.773Z" fill="#fff"/>
      <g id="Group_211" data-name="Group 211">
        <path id="Path_6509" data-name="Path 6509" d="M380.16,116.649a21.827,21.827,0,0,0-4.051,1.412,5.012,5.012,0,0,1-3.034.574c-2.835-1.518-4.175-3.455-3.937-4.682a1.236,1.236,0,0,1,.457-.775,13.3,13.3,0,0,1,3.241-1.751c2.9-1.5,7.287.267,7.65,1.706a6.656,6.656,0,0,1-.137,2.845C380.247,116.384,380.16,116.649,380.16,116.649Z" fill="url(#linear-gradient-46)"/>
        <path id="Path_6510" data-name="Path 6510" d="M380.16,116.649a21.827,21.827,0,0,0-4.051,1.412,5.012,5.012,0,0,1-3.034.574c-2.835-1.518-4.175-3.455-3.937-4.682,0,0,1.142,1.065,4.432,1.456,2.912.34,5.443.145,6.779.569C380.247,116.384,380.16,116.649,380.16,116.649Z" fill="url(#linear-gradient-47)"/>
        <path id="Path_6511" data-name="Path 6511" d="M376.6,117.83a3.494,3.494,0,0,1,3.558-1.181A33.277,33.277,0,0,0,376.6,117.83Z" fill="#9f4a8b"/>
      </g>
      <path id="Path_6512" data-name="Path 6512" d="M367.872,123.348s-.217,8.549,2.9,12.736,8.919,2.979,12.317-.791a19.329,19.329,0,0,0,4.177-8.977Z" fill="#e87a8d"/>
      <path id="Path_6513" data-name="Path 6513" d="M387.643,123.656a17.161,17.161,0,0,1-1.607,6.254v.008c-2.81,5.953-8.66,9-12.957,6.914a8.137,8.137,0,0,1-3.736-4.79c-1.42-3.881-1.465-8.709-1.532-10.188-.082-2-.852-2.538-1.039-2.635l2.339,1.029c4.976.1,9.183,2.035,11.485,2.425,2.653.458,4.969-.158,6.1.03S387.643,123.656,387.643,123.656Z" fill="#9f3e8b"/>
      <path id="Path_6514" data-name="Path 6514" d="M386.036,129.91v.008c-2.81,5.953-8.66,9-12.957,6.914a8.137,8.137,0,0,1-3.736-4.79s3.078-2.793,9.034-3.363S386.036,129.91,386.036,129.91Z" fill="url(#linear-gradient-48)"/>
      <path id="Path_6515" data-name="Path 6515" d="M369.112,120.248s.265,2.456,3.97,3.595,9.278-1,9.278-1a16.407,16.407,0,0,1-3.979-.742C375.937,121.377,372.009,120.067,369.112,120.248Z" fill="#ffebed"/>
      <path id="Path_6516" data-name="Path 6516" d="M385.269,121.549a8.259,8.259,0,0,1,3.634,3.989,11.333,11.333,0,0,0-.862-3.769C387.335,120.533,385.269,121.549,385.269,121.549Z" fill="#e87a8d"/>
      <path id="Path_6517" data-name="Path 6517" d="M367.2,119.405a4.258,4.258,0,0,0,1.915.383,13.886,13.886,0,0,1,6.848.925,29.527,29.527,0,0,0,7.173,1.872,16.753,16.753,0,0,0,2.809.084,26.259,26.259,0,0,1-3.792.246c-1.518-.069-5.388-1.647-8.6-2.155a17.431,17.431,0,0,0-4.441-.333A5.052,5.052,0,0,1,367.2,119.405Z" fill="#e87a8d"/>
      <path id="Path_6518" data-name="Path 6518" d="M390.839,115.734a25.391,25.391,0,0,0,17.72-1.781,9.769,9.769,0,0,1-4.758,3.625C400.43,118.863,394.131,118.722,390.839,115.734Z" fill="#e87a8d"/>
      <path id="Path_6519" data-name="Path 6519" d="M362.758,106.066s1.711,4.791,7.516,3.765c0,0-2.879,2.837-5.247,1.588A4.571,4.571,0,0,1,362.758,106.066Z" fill="#e87a8d"/>
      <path id="Path_6520" data-name="Path 6520" d="M370.113,133.8s1.787-3.532,5.062-4.558c0,0-4.249.865-5.831,2.8Z" fill="#ff9aab"/>
      <path id="Path_6521" data-name="Path 6521" d="M369.975,133.5s1.051.318,3.448,1.113a42,42,0,0,1,5.42,2.341S372.61,139.49,369.975,133.5Z" fill="#ffebed"/>
      <path id="Path_6522" data-name="Path 6522" d="M420.127,83.461s2.584,10.812,6.191,13.411,6.647-1.211,6.448-5.28c0,0,5,12.92-1.778,31.334,0,0-1.394-3.706-7.41-2.142a14.694,14.694,0,0,0-6.941,4.405,66,66,0,0,0,3.377-11.873c.944-5.785.066-16.444.066-16.444Z" opacity="0.62" fill="url(#linear-gradient-12)" style="mix-blend-mode: multiply;isolation: isolate"/>
      <path id="Path_6523" data-name="Path 6523" d="M408.559,81.18s7.067,6.113,9.782,18.055-.214,31.435.352,40.113,4.9,8.665,4.216,21.194c0,0,2.863-10.668-1.243-19.061s.184-17.026,3.844-29.708S420.25,82.9,417.418,81.18,408.559,81.18,408.559,81.18Z" fill="url(#linear-gradient-26)"/>
      <path id="Path_6524" data-name="Path 6524" d="M330,92.548a15.738,15.738,0,0,1,.873,3.841l.188,2.086,1.589,4.134.875-.47A25.5,25.5,0,0,1,331.2,98.38c-.354-1.043.259-1.968-.236-3.675A5.29,5.29,0,0,0,330,92.548Z" fill="url(#linear-gradient-51)"/>
      <path id="Path_6525" data-name="Path 6525" d="M408.559,183.562s2.207,4.944.932,8.387l4.057.077S413.325,186.1,408.559,183.562Z" fill="url(#linear-gradient-52)"/>
      <path id="Path_6526" data-name="Path 6526" d="M380.372,186.242a56.883,56.883,0,0,0,6.159,2.062,37.234,37.234,0,0,0,5.615.545,14.427,14.427,0,0,1-5.7,0A22.888,22.888,0,0,1,380.372,186.242Z" fill="url(#linear-gradient-53)"/>
      <path id="Path_6527" data-name="Path 6527" d="M432,189.842c-.7.706-4.154,2.5-14.234,3.206a7.561,7.561,0,0,1-4.222,1.066,3.431,3.431,0,0,1-2.645-2.14l2.645.053s-.9-6.787-4.991-8.468c0,0-.463-2.095.6-2.515,0,0,5.612,5.968,6.3,11.3a8.263,8.263,0,0,0,5.791-3.851l-.568,2.14s9.131-3.544,10.4-5.548c.232-.36.93-.831.93-1.364C432.513,186.389,432.423,189.418,432,189.842Z" opacity="0.62" fill="url(#linear-gradient-12)" style="mix-blend-mode: multiply;isolation: isolate"/>
      <path id="Path_6528" data-name="Path 6528" d="M421.647,177.017a7.847,7.847,0,0,1,6.5.237,16.913,16.913,0,0,0-4.4-4.76l-.364,3.072A3.682,3.682,0,0,0,421.647,177.017Z" opacity="0.62" fill="url(#linear-gradient-55)" style="mix-blend-mode: multiply;isolation: isolate"/>
      <path id="Path_6529" data-name="Path 6529" d="M376.134,227.441s4.479,2.647,14.432,1.285a38.9,38.9,0,0,0,17.343-7.357,65.153,65.153,0,0,1-17.721,5.271A81.715,81.715,0,0,1,376.134,227.441Z" opacity="0.62" fill="url(#linear-gradient-12)" style="mix-blend-mode: multiply;isolation: isolate"/>
      <path id="Path_6530" data-name="Path 6530" d="M373.782,231.156c.075.533.74,4.835,2.817,6.914-.374-.045-.725-.09-1.061-.135l.007-.007S374.163,236.8,373.782,231.156Z" opacity="0.5" fill="url(#linear-gradient-12)" style="mix-blend-mode: multiply;isolation: isolate"/>
      <path id="Path_6531" data-name="Path 6531" d="M396.306,77.976s8.159.916,12.253,3.666S416.994,95.2,416.994,95.2s-1.7-16.88-6.04-19.724S400.064,73.646,396.306,77.976Z" fill="url(#linear-gradient-8)"/>
      <path id="Path_6532" data-name="Path 6532" d="M396.306,77.976s3.911-4.7,9.008-4.916c0,0,8.778-.071,12.6,5.405s4.884,20.839,7.645,27.951,8.141,13.585,8.99,25.391-8.23,24.467-8.23,24.467,5.177-17.4,4.548-28.734-7.571-17.921-12.527-28.306-4.462-22.192-11.753-24.184C400.581,73.411,396.306,77.976,396.306,77.976Z" fill="url(#linear-gradient-29)"/>
      <path id="Path_6533" data-name="Path 6533" d="M342.082,141.482l2.331-.94.679,1.318-1.92,1.337S342.444,142.1,342.082,141.482Z" fill="#ff97ed"/>
      <path id="Path_6534" data-name="Path 6534" d="M357.816,138.719v6.745h1.947l-.055-5.6Z" fill="#ff97ed"/>
      <path id="Path_6535" data-name="Path 6535" d="M347.913,129.532l3.675-.29,1.534,1.789h-4.485Z" fill="#ff97ed"/>
      <path id="Path_6536" data-name="Path 6536" d="M373.782,218.01l3.432,4.978,2.64-1.232-4.707-4.245Z" fill="#ffacff"/>
      <path id="Path_6537" data-name="Path 6537" d="M370.356,196.707l2.655,1.578v2.276l-2.655-1.392Z" fill="#ffacff"/>
      <path id="Path_6538" data-name="Path 6538" d="M404.535,231.156l-3.7,6,3.513-.666,2.406-4.826Z" fill="#ffacff"/>
      <path id="Path_6539" data-name="Path 6539" d="M430.9,180a9.016,9.016,0,0,1-2.415,3.014l1.207,2.069s1.934-1.413,2.168-2.1A24.086,24.086,0,0,0,430.9,180Z" fill="#ffacff"/>
      <path id="Path_6540" data-name="Path 6540" d="M418.15,180.706a20.184,20.184,0,0,0,5.285-.391l1.32,1.48a22.74,22.74,0,0,1-7.028.259Z" fill="#ffacff"/>
      <path id="Path_6541" data-name="Path 6541" d="M423.837,192.338a4.313,4.313,0,0,0,1.557-2.967l2.266-.664a7.025,7.025,0,0,1-1.274,3.224S424.4,192.27,423.837,192.338Z" fill="#ffacff"/>
      <path id="Path_6542" data-name="Path 6542" d="M397.52,149.349l-2.082,2.658,3.175.64L400.307,151A15.73,15.73,0,0,0,397.52,149.349Z" fill="#ffacff"/>
      <path id="Path_6543" data-name="Path 6543" d="M420.961,229.249l-.015.015c-.351.383-6.239,6.449-24.643,8.521a97.092,97.092,0,0,1-15.594.631,16.56,16.56,0,0,0,2.877-.113s-.546-5.345-.77-7.958c0,0,1.24,5.781,2.75,7.86a56.064,56.064,0,0,0,7.786-.616,61.359,61.359,0,0,1-1.33-8.476,37.962,37.962,0,0,0,3.026,8.476l3.161-.848s-.844-4.039-1.435-8.566c0,0,1.629,6.524,3.041,8.709,0,0,6.889-1.141,8.092-2.282,0,0,.97-3.173-.4-9.069a45.405,45.405,0,0,1,2.081,8.693L414,232.613a40.849,40.849,0,0,0,.189-9.317s1.472,5.383,1.263,8.7l3.519-2.23a29.554,29.554,0,0,0-.986-8.01,20.39,20.39,0,0,1,2.122,7.635Z" opacity="0.3" fill="url(#linear-gradient-12)" style="mix-blend-mode: multiply;isolation: isolate"/>
    </g>
  </g>
</svg>
